<svg xmlns="http://www.w3.org/2000/svg" width="500" height="156" fill="none"><path fill="#FC9E15" d="M165.263 34.5h26.679l20.259 54.667h.327L231.306 34.5h24.865l-31.622 80.354h-26.185L165.263 34.5Z"/><path fill="#1391D2" d="M68.498 54.255h-24.37v26.9c0 2.193.272 4.195.514 6.01.24 1.806.862 3.372 1.707 4.692.843 1.319 2.18 2.333 3.932 3.043 1.753.715 4.098 1.07 6.998 1.07 1.445 0 3.433-.132 5.79-.41 2.356-.273 4.112-.908 5.43-1.89v20.581c-3.293.987-6.234 1.647-9.498 1.979a96.246 96.246 0 0 1-9.637.493c-4.596 0-8.838-.436-12.698-1.318-3.868-.874-7.258-2.277-10.157-4.198-2.902-1.921-5.235-4.419-6.865-7.494-1.628-3.076-2.518-6.804-2.518-11.197v-38.26H0v-19.76h17.124v-23.71H44.13v23.71h24.37v19.76ZM75.084 34.497h25.028V47.67h.247c2.636-5.27 5.765-8.706 9.387-11.172 3.622-2.474 8.181-3.74 13.672-3.74 1.427 0 2.89.044 4.316.151 1.428.114 2.675.318 3.993.645V56.12c-1.976-.552-3.527-.963-5.225-1.234a34.02 34.02 0 0 0-5.371-.414c-4.724 0-8.468.661-11.211 1.979-2.743 1.312-4.86 3.157-6.346 5.514-1.479 2.362-2.406 5.19-2.842 8.478-.442 3.298-.62 6.92-.62 10.876v33.531H75.084V34.497ZM137.655 34.5h24.369v80.353h-24.369V34.499Zm-.994-21.138c0-3.623 1.281-6.713 3.844-9.276 2.567-2.568 5.657-3.852 9.276-3.852 3.626 0 6.718 1.284 9.28 3.852 2.565 2.562 3.847 5.653 3.847 9.275 0 3.619-1.282 6.712-3.847 9.272-2.562 2.571-5.655 3.853-9.28 3.853-3.618 0-6.709-1.282-9.276-3.853-2.563-2.56-3.844-5.652-3.844-9.271Z"/><path fill="#FC9E15" d="M298.08 79.944c-1.865 0-4.199-.053-7.001.111-2.799.167-5.49.567-8.068 1.333-2.577.768-4.776 1.89-6.587 3.421-1.811 1.543-2.717 3.662-2.717 6.409 0 2.966 1.262 5.151 3.79 6.578 2.523 1.424 5.156 2.14 7.902 2.14 2.415 0 4.749-.334 7-.995 2.251-.66 4.254-1.592 6.011-2.802 1.757-1.206 3.215-2.739 4.263-4.61 1.039-1.865 1.618-4.058 1.618-6.588v-4.997h-6.211Zm6.21 25.029h-.448c-2.744 3.951-6.398 7.221-10.947 9.083-4.56 1.874-9.363 2.737-14.414 2.737a37.13 37.13 0 0 1-10.787-1.599c-3.456-1.038-6.504-2.623-9.138-4.708-2.635-2.086-4.723-4.675-6.26-7.752-1.541-3.068-2.306-6.641-2.306-10.705 0-4.61.852-8.513 2.556-11.697 1.699-3.183 4.002-5.822 6.913-7.906 2.911-2.088 6.233-3.704 9.965-4.857a72.696 72.696 0 0 1 11.614-2.555c4.003-.546 8.012-.876 12.022-.99 4.004-.107 7.707-.166 11.111-.166 0-4.386-1.559-7.875-4.691-10.455-3.127-2.58-6.835-3.869-11.117-3.869-4.062 0-7.767.852-11.115 2.55-3.35 1.705-6.34 4.04-8.975 7.001l-13.177-13.506c4.61-4.28 9.992-7.494 16.141-9.632 6.148-2.145 12.517-3.213 19.106-3.213 7.243 0 13.197.907 17.867 2.72 4.662 1.812 8.396 4.477 11.198 7.99 2.798 3.512 4.64 7.816 5.737 12.925 1.095 5.107 1.54 11.008 1.54 17.704v40.779h-22.394v-9.879h-.001Z"/><path fill="#E3403D" d="M441.887 74.736c0 6.036 1.569 10.924 4.694 14.653 3.134 3.734 7.526 5.599 13.19 5.599s10.055-1.865 13.184-5.599c3.129-3.73 4.697-8.617 4.697-14.653 0-6.037-1.568-10.924-4.697-14.659-3.129-3.729-7.52-5.6-13.184-5.6s-10.056 1.87-13.19 5.6c-3.125 3.735-4.694 8.622-4.694 14.659Zm-22.346 0c0-6.367 1.044-12.13 3.124-17.297 2.09-5.154 4.942-9.573 8.574-13.25 3.622-3.68 7.892-6.506 12.811-8.486 4.919-1.977 10.157-2.969 15.721-2.969 5.56 0 10.801.992 15.716 2.97 4.919 1.98 9.185 4.805 12.815 8.484 3.625 3.677 6.484 8.097 8.564 13.25C498.956 62.607 500 68.37 500 74.737c0 6.365-1.044 12.129-3.134 17.29-2.08 5.162-4.939 9.582-8.564 13.257-3.63 3.68-7.896 6.508-12.815 8.478-4.915 1.977-10.156 2.968-15.716 2.968-5.564 0-10.802-.991-15.721-2.968-4.919-1.97-9.189-4.798-12.811-8.478-3.632-3.675-6.485-8.095-8.574-13.257-2.079-5.161-3.124-10.924-3.124-17.29ZM393.42 34.419v10.766h-.372c-.432-.59-1.037-1.487-2.805-3.005-2.333-2.003-4.035-2.95-6.339-4.226-2.284-1.265-4.98-2.35-7.904-3.129-2.921-.768-6.686-1.4-10.209-1.4-5.727 0-10.961 1.563-15.478 3.925-4.517 2.368-7.822 4.775-10.84 8.782-2.973 3.945-4.708 7.903-6.103 13.063-1.392 5.153-1.741 11.083-1.741 16.37a62.1 62.1 0 0 0 2.392 16.989c1.487 5.222 3.886 9.931 6.989 13.487 3.375 3.87 6.841 5.869 11.688 7.909 4.848 2.037 10.002 2.777 15.953 2.712 3.767-.041 7.429-.871 11.661-2.501 5.155-1.986 8.758-5.701 10.178-7.708h.286v7.787c0 5.728-1.25 10.434-4.824 14.124-3.581 3.69-8.802 5.672-16.405 5.672-5.064 0-8.246.104-13.398-1.288-4.479-1.21-10.113-3.342-14.291-6.405l-12.017 17.64c6.405 4.638 12.197 7.493 19.149 9.335 6.884 1.822 13.932 2.397 21.09 2.397 15.642 0 26.713-3.938 34.371-11.816 7.654-7.873 10.777-19.416 10.777-34.621v-74.86H393.42Zm-6.159 55.072c-3.138 3.747-7.545 5.617-13.225 5.617-5.683 0-10.09-1.871-13.235-5.617-3.134-3.742-4.708-8.646-4.708-14.703 0-6.057 1.574-10.96 4.708-14.707 3.145-3.742 7.552-5.62 13.235-5.62 5.68 0 10.087 1.878 13.225 5.62 3.141 3.747 4.713 8.65 4.713 14.707s-1.572 10.96-4.713 14.703Z"/></svg>